<svg width="148" height="246" viewBox="0 0 148 246" fill="none" xmlns="http://www.w3.org/2000/svg">
<g clip-path="url(#clip0_3807_3314)">
<path d="M88.4633 46.886C88.6755 48.3941 88.3036 49.9266 87.4235 51.1709C86.5435 52.4151 85.2215 53.2774 83.7273 53.5818C82.2332 53.8862 80.6795 53.6097 79.3831 52.8087C78.0867 52.0078 77.1454 50.7428 76.7513 49.2718C76.3571 47.8008 76.5398 46.2346 77.262 44.8928C77.9842 43.551 79.1916 42.5347 80.6377 42.0512C82.0839 41.5677 83.6599 41.6535 85.0442 42.291C86.4285 42.9286 87.5169 44.0698 88.0871 45.482C86.1777 45.337 84.2609 45.3162 82.3486 45.4195L80.9427 45.7962C80.9427 45.7962 84.8732 46.2288 88.4728 46.9215L88.4633 46.886Z" fill="white"/>
<path d="M111.668 109.928C111.229 109.971 110.812 110.142 110.469 110.42C110.127 110.698 109.874 111.071 109.741 111.492C109.509 112.346 109.443 113.236 109.548 114.115C109.782 117.976 110.691 121.657 111.072 125.498L112.575 137.514C113.736 146.829 114.905 156.148 116.08 165.471L116.575 169.453C107.902 151.319 90.6595 115.443 82.3257 97.5798C84.2498 97.0642 86.2493 96.8895 88.2333 97.0636C78.1072 94.8624 80.4456 82.2354 80.4579 74.5937C80.4266 68.7352 80.4132 62.872 80.4175 57.0039C79.1246 56.9758 77.8789 56.5143 76.8806 55.6935C75.8824 54.8728 75.1896 53.7404 74.9136 52.4785C75.7909 58.2437 74.8399 64.5177 74.9625 70.3137C75.0575 74.4407 74.8309 78.5777 74.5996 82.697C73.7783 81.835 72.8734 81.0566 71.8981 80.3732C72.46 68.946 73.2058 53.5075 73.2595 51.074C73.3414 47.1091 71.9243 46.8031 69.8242 44.3752C67.7241 41.9473 71.6295 34.1006 71.6295 34.1006L72.6438 33.8288C72.316 33.4595 70.4843 31.3216 70.8898 29.6319C71.0177 29.0647 71.2564 28.5283 71.5922 28.0533L70.3998 28.3728C71.5629 26.8518 73.1428 25.7006 74.9476 25.0588C76.6835 24.5364 78.4754 24.2226 80.2854 24.1239C82.084 23.8717 83.9063 23.8375 85.7128 24.022C87.8099 24.2977 89.7416 25.3049 91.1666 26.8656C85.7048 26.0216 80.1352 26.1593 74.7206 27.2722C74.3548 27.7766 74.1188 28.3631 74.0338 28.98L74.9592 28.7321C75.7599 28.5175 76.7386 28.2553 77.7173 27.993L79.3084 27.7381L80.9719 27.54C82.0645 27.4619 83.1604 27.4416 84.2551 27.4794C84.7641 27.4947 85.272 27.5367 85.7765 27.6051C86.2417 27.6328 86.7034 27.7187 87.1199 27.7785C87.94 27.9207 88.6177 28.101 89.1423 28.208C89.3869 28.2823 89.6271 28.3706 89.8615 28.4725L89.051 28.3658C88.5716 28.2848 87.8916 28.2384 87.0906 28.1673C86.6657 28.1478 86.2314 28.0927 85.7579 28.1053C85.2845 28.1179 84.7838 28.0997 84.27 28.104C83.7562 28.1083 83.2293 28.1352 82.6752 28.1313L81.0461 28.244L79.4087 28.397L77.8437 28.6068L76.3772 28.8283L75.0496 29.0697L74.0531 29.3368C74.0487 29.6846 74.1028 30.0307 74.213 30.3606C74.44 31.1356 74.8969 31.8234 75.5235 32.3334C77.0887 31.7609 78.7353 31.4418 80.4009 31.3884C83.2215 31.3597 86.0395 31.5667 88.8252 32.0074C89.1788 32.046 90.4418 32.4886 90.8238 32.3481C90.8238 32.3481 96.153 39.2824 94.5548 42.0726C93.7296 43.2363 93.0141 44.4738 92.4173 45.7692L89.6263 45.6028C89.222 44.1042 88.3444 42.7762 87.1239 41.816C85.3263 40.8358 83.3529 40.2189 81.3162 40.0006C83.1414 39.4554 85.0674 39.3369 86.9452 39.6543L86.2171 32.0967C84.3328 32.1825 82.4438 32.2506 80.5738 32.3897L81.3162 40.0006L78.6072 41.2789L77.9445 32.5419L76.2928 32.6416C76.3605 32.6348 76.4266 32.6171 76.4886 32.5891L77.437 42.3925C76.5998 43.2521 75.9895 44.306 75.6612 45.4594C75.3328 46.6128 75.2966 47.8294 75.5558 48.9998C75.8151 50.1703 76.3616 51.2577 77.1463 52.1645C77.9309 53.0712 78.929 53.7687 80.0508 54.1942C81.1726 54.6197 82.383 54.7598 83.5729 54.602C84.7628 54.4442 85.8949 53.9933 86.8674 53.2901C87.8399 52.5868 88.6222 51.6532 89.144 50.5732C89.6658 49.4932 89.9106 48.3007 89.8566 47.1031C90.7265 47.289 91.5253 47.494 92.2126 47.7099C92.2449 48.2158 92.3219 48.7179 92.4429 49.2102C93.2662 53.0659 102.432 89.9065 102.432 89.9065C103.604 92.4892 105.425 94.7246 107.718 96.3952C111.197 98.7012 116.733 102.99 116.961 109.538C117.052 113.647 120.386 152.927 122.939 181.672C122.647 181.155 122.322 180.657 121.967 180.18C121.615 179.436 120.546 177.228 118.977 173.934C117.862 160.899 116.747 147.863 115.632 134.828C115.235 130.287 114.857 125.741 114.46 121.199C114.212 118.351 114.188 115.558 113.951 112.611C113.885 112.363 113.818 112.114 113.881 111.849C113.843 111.637 113.788 111.429 113.714 111.227C113.562 110.817 113.279 110.469 112.91 110.234C112.541 109.999 112.105 109.892 111.668 109.928V109.928ZM91.8651 39.936C92.3849 40.0253 92.9885 40.8541 92.9885 40.8541C93.0792 40.1672 93.0095 39.4687 92.785 38.8134C92.0016 37.0473 91.1031 35.3346 90.0952 33.6863L91.0448 39.5082C91.2597 39.7535 91.5528 39.9171 91.8746 39.9716L91.8651 39.936ZM83.5766 88.3681L84.2139 60.1392C81.29 80.3329 83.5861 88.4037 83.5861 88.4037L83.5766 88.3681ZM95.6607 98.7307C95.6437 99.0352 95.6952 99.3396 95.8115 99.6215C95.9277 99.9034 96.1057 100.156 96.3323 100.36C96.559 100.564 96.8286 100.715 97.1213 100.801C97.414 100.888 97.7224 100.908 98.0239 100.859C102.461 99.7658 96.2095 94.0882 95.6702 98.7663L95.6607 98.7307ZM112.753 107.142C113.064 103.249 110.025 100.52 106.885 98.9804C106.164 98.614 105.373 98.4039 104.565 98.364C104.086 98.3199 103.604 98.4007 103.165 98.5983C102.727 98.7959 102.347 99.1036 102.063 99.4915C101.207 100.711 100.831 103.364 102.171 104.377C103.216 105.145 104.637 104.897 105.926 105.009C107.843 105.235 109.612 106.149 110.906 107.58C111.251 107.944 111.732 108.387 112.216 108.2C112.7 108.013 112.72 107.589 112.762 107.177L112.753 107.142Z" fill="white"/>
<path d="M72.1563 217.433C72.1563 217.433 71.9997 216.065 71.7495 213.637C72.5326 214.682 73.4562 215.614 74.4942 216.406C75.6439 221.622 74.8333 222.868 81.0372 225.949C87.2412 229.029 98.5575 227.274 98.5575 227.274C98.5575 227.274 86.4336 226.941 83.5706 224.584C81.928 223.082 80.8232 221.083 80.4247 218.894C84.1114 219.43 87.8714 219.151 91.4392 218.076C95.9634 216.785 100.324 214.977 104.434 212.689C110.497 210.282 116.019 206.692 120.676 202.127C121.041 204.982 121.392 207.859 121.757 210.714C121.916 211.948 122.115 213.19 122.211 214.402C121.857 210.141 121.49 205.877 121.11 201.611C122.273 200.344 123.266 198.931 124.066 197.409L125.367 212.299C125.367 212.299 127.423 219.12 124.627 223.774C121.972 228.104 114.933 232.086 100.523 232.899C86.2021 234.832 78.5106 232.321 75.1065 228.586C71.4422 224.52 72.1563 217.433 72.1563 217.433Z" fill="white"/>
<path d="M22.1962 20.3739C22.0739 20.2734 21.916 20.1824 21.7759 20.0866L22.1962 20.3739Z" fill="white"/>
<path d="M25.3787 97.2382C26.4431 94.6064 26.8128 91.7459 26.4523 88.9312C26.4523 88.9312 14.863 52.797 13.5592 49.07C12.2554 45.3431 10.7177 45.5837 7.99308 44.0279C5.26844 42.4722 6.04986 33.7863 6.04986 33.7863L6.86094 33.1118C6.41932 32.8873 3.97492 31.5231 3.74083 29.7953C3.66942 29.2186 3.70671 28.6336 3.85082 28.0705L2.8666 28.8104C3.42 26.997 4.49328 25.3849 5.95367 24.1736C7.39358 23.0658 8.96457 22.1394 10.6312 21.4155C12.2269 20.5434 13.9214 19.8656 15.6784 19.3964C17.7405 18.9241 19.9027 19.1871 21.7902 20.1398C17.996 20.926 14.316 22.1872 10.8375 23.8936C9.35946 24.6232 7.92012 25.4285 6.52513 26.3063C6.35931 26.9316 6.35168 27.5883 6.50302 28.2171C6.74182 28.0046 6.99539 27.8093 7.2619 27.6327C8.01704 27.0527 8.80161 26.5119 9.61238 26.0124L11.0155 25.1983L12.4909 24.4411C13.4841 23.9793 14.5023 23.5729 15.5406 23.2239C16.0567 23.0856 16.5371 22.9569 17.0176 22.8281C17.4981 22.6994 17.9073 22.5897 18.3166 22.4801C18.9793 22.349 19.6493 22.2586 20.323 22.2092C20.5755 22.1875 20.8292 22.1831 21.0823 22.1962L20.3528 22.3917L18.4309 22.9067C18.0216 23.0163 17.5946 23.1307 17.1319 23.2547L15.7417 23.7605C15.2434 23.894 14.7832 24.1698 14.2814 24.3614L12.7821 25.0297C12.2946 25.2747 11.7846 25.5066 11.3197 25.7645L9.91545 26.5027C9.47309 26.7736 9.02112 27.009 8.60482 27.2348C8.18851 27.4607 7.81733 27.7125 7.47221 27.9193L6.58751 28.4611C6.69567 28.7956 6.86941 29.1051 7.09858 29.3718C7.58994 30.0106 8.25591 30.4937 9.01617 30.7628C10.289 29.6838 11.7196 28.8058 13.2583 28.1594C15.8886 27.1482 18.5968 26.3525 21.3561 25.7801C21.712 25.6847 23.0433 25.6709 23.2852 25.4346C23.2852 25.4346 30.7163 30.0342 30.197 33.2211C29.8053 34.6024 29.5459 36.0177 29.4223 37.4479L26.7412 38.2615C25.8391 36.996 24.5434 36.0641 23.0556 35.6108C21.0301 35.3176 18.9661 35.4304 16.9841 35.9424C18.4974 34.8134 20.2455 34.039 22.0988 33.6766L18.7464 26.8603C17.0336 27.586 15.2235 28.3757 13.6222 29.0905L16.9841 35.9424L14.8928 38.1028L11.2002 30.1586L9.68305 30.8318L9.89658 30.7746L14.1762 39.6282C13.7132 40.7266 13.5291 41.922 13.6401 43.1082C13.7511 44.2944 14.1539 45.4347 14.8125 46.4276C15.4712 47.4206 16.3653 48.2354 17.4155 48.7997C18.4656 49.3639 19.6393 49.6602 20.8321 49.6621C22.0249 49.664 23.1998 49.3715 24.2524 48.8106C25.3051 48.2496 26.2029 47.4376 26.866 46.4468C27.5291 45.456 27.9369 44.317 28.0533 43.1311C28.1696 41.9453 27.9907 40.7493 27.5327 39.6494C28.4154 39.5272 29.2495 39.4371 29.9638 39.3981C30.1724 39.8532 30.4172 40.2908 30.6959 40.7067C32.8228 43.9464 54.3957 75.2721 54.3957 75.2721C56.4371 77.2921 58.9696 78.7469 61.7445 79.4937C65.8035 80.4062 72.5002 82.4786 74.9689 88.5602C77.4377 94.6418 119.184 181.612 119.184 181.612C119.184 181.612 123.505 187.273 122.517 192.624C121.616 197.589 116.392 203.789 103.177 209.635C90.4932 216.539 82.3569 216.852 77.7876 214.533C72.9381 212.023 71.1178 205.158 71.1178 205.158C71.1178 205.158 27.7176 118.993 24.4067 113.328C21.0958 107.662 23.627 101.022 25.3787 97.2382ZM26.1281 31.9874C26.4145 32.1316 26.7421 32.1717 27.0549 32.101C27.5532 31.9675 28.4212 32.573 28.4212 32.573C28.276 31.8957 27.9629 31.2657 27.5107 30.7407C26.1579 29.357 24.7154 28.0637 23.1927 26.869L26.1281 31.9874ZM75.189 105.397C77.08 108.967 79.0067 112.527 80.8444 116.111L93.9914 141.046C101.059 154.467 108.141 167.897 115.239 181.336C115.802 182.442 116.437 183.529 116.974 184.68C105.46 160.691 93.988 136.691 82.5572 112.68C80.5945 108.558 78.614 104.441 76.6513 100.319C75.4244 97.7337 74.3707 95.0827 73.1569 92.4745C73.0902 92.2257 73.0236 91.9768 72.8015 91.7887C72.6923 91.6026 72.5684 91.4256 72.4308 91.2594C72.1826 90.966 71.8546 90.7507 71.4864 90.6398C71.1181 90.5289 70.7255 90.527 70.3561 90.6343C69.9421 90.8195 69.5938 91.1254 69.3569 91.5119C69.1201 91.8983 69.0058 92.3472 69.029 92.7995C69.085 93.6835 69.3165 94.5474 69.71 95.341C71.3494 98.8256 73.501 101.944 75.189 105.397ZM59.4625 88.7721C60.7507 88.8749 62.0422 88.6147 63.1902 88.0209C65.0625 87.5696 67.0344 87.8051 68.7465 88.6846C69.2237 88.8996 69.822 89.1393 70.2097 88.8068C70.3326 88.6385 70.4101 88.4416 70.4349 88.2348C70.4596 88.028 70.4308 87.8184 70.351 87.6261C69.3558 83.9117 65.4386 82.3897 61.9746 82.0607C61.1677 81.9766 60.3518 82.0528 59.5742 82.2848C59.1116 82.4174 58.6907 82.6659 58.3514 83.0069C58.0121 83.3479 57.7658 83.77 57.6359 84.2328C57.2218 85.6772 57.8103 88.3005 59.4625 88.7721ZM54.3336 86.9273C58.1058 84.2783 50.2264 81.2085 51.3838 85.8128C51.4809 86.0937 51.6381 86.35 51.8445 86.5638C52.051 86.7777 52.3018 86.9439 52.5792 87.0509C52.8567 87.1579 53.1542 87.2032 53.451 87.1835C53.7479 87.1638 54.0369 87.0796 54.2979 86.9368L54.3336 86.9273ZM36.3862 80.3072L27.0026 53.5443C31.3645 73.5954 36.3554 80.3346 36.3554 80.3346L36.3862 80.3072ZM32.0579 122.592C32.0579 122.592 69.6628 198.233 72.8198 202.969C75.9768 207.704 75.4785 209.19 82.5146 209.895C89.5506 210.6 99.3684 204.96 99.3684 204.96C99.3684 204.96 87.9009 208.928 84.391 207.716C82.0872 206.764 80.1921 205.034 79.0375 202.827L31.4946 102.838C26.0288 114.684 32.027 122.62 32.027 122.62L32.0579 122.592ZM30.2227 119.16C28.5052 115.019 27.5599 110.598 27.4334 106.117C27.369 103.879 27.764 101.651 28.5942 99.5714C29.4244 97.4915 30.6722 95.6031 32.2605 94.0227C34.4125 92.0175 41.0224 87.2177 43.8082 86.795C33.543 88.3456 31.2915 75.6722 28.613 68.5229L22.3048 52.0983C21.0814 52.5158 19.7541 52.5162 18.531 52.0993C17.3079 51.6825 16.2582 50.872 15.5462 49.7948C18.4365 54.8872 19.7318 61.0737 21.9211 66.4683C23.8132 71.1805 25.2568 76.0701 26.8202 80.9085C27.8661 84.1712 30.4442 89.0235 29.9251 92.4961C29.3795 94.3488 28.5263 96.097 27.401 97.6678C23.8621 103.892 27.0802 113.411 30.1919 119.187L30.2227 119.16Z" fill="white"/>
<path d="M26.306 39.7687C26.8308 40.826 27.0294 42.0152 26.8768 43.1858C26.7241 44.3564 26.2271 45.4556 25.4486 46.3442C24.6701 47.2327 23.6453 47.8706 22.5039 48.177C21.3625 48.4834 20.1559 48.4446 19.0371 48.0653C17.9183 47.686 16.9377 46.9835 16.2193 46.0467C15.501 45.1099 15.0773 43.9809 15.002 42.803C14.9267 41.625 15.2032 40.4511 15.7965 39.4298C16.3897 38.4086 17.273 37.586 18.3344 37.0664C19.5246 36.4795 20.8775 36.3095 22.1755 36.5836C23.4736 36.8576 24.6413 37.56 25.491 38.5775C23.6373 39.1018 21.8259 39.7655 20.0723 40.5628L18.8341 41.3517C18.8341 41.3517 22.6779 40.3217 26.2835 39.7556L26.306 39.7687Z" fill="white"/>
</g>
<defs>
<clipPath id="clip0_3807_3314">
<rect width="90.8792" height="229.641" fill="white" transform="matrix(-0.965926 0.258819 0.258819 0.965926 87.7825 0)"/>
</clipPath>
</defs>
</svg>
