<svg width="39" height="38" viewBox="0 0 39 38" fill="none" xmlns="http://www.w3.org/2000/svg">
<g clip-path="url(#clip0_3804_3157)">
<path d="M19.0975 3.98291C16.1121 3.98227 13.1936 4.86283 10.7111 6.51318C8.22864 8.16353 6.29372 10.5095 5.15111 13.2545C4.0085 15.9994 3.70953 19.0199 4.29203 21.934C4.87453 24.848 6.31234 27.5247 8.42356 29.6254C10.5348 31.7261 13.2246 33.1564 16.1527 33.7355C19.0808 34.3146 22.1158 34.0164 24.8736 32.8787C27.6314 31.7409 29.9883 29.8147 31.646 27.3437C33.3037 24.8727 34.1879 21.968 34.1866 18.9968C34.1806 15.0161 32.5889 11.2003 29.7603 8.38583C26.9318 5.57137 23.0973 3.98802 19.0975 3.98291ZM19.0975 31.2352C16.666 31.2352 14.2891 30.5177 12.2674 29.1732C10.2457 27.8288 8.66998 25.9179 7.73949 23.6822C6.809 21.4465 6.56554 18.9865 7.0399 16.6131C7.51426 14.2397 8.68514 12.0596 10.4045 10.3484C12.1238 8.6373 14.3143 7.47201 16.6991 6.99991C19.0839 6.52782 21.5558 6.77011 23.8022 7.69617C26.0486 8.62222 27.9686 10.1904 29.3195 12.2025C30.6704 14.2146 31.3914 16.5801 31.3914 19C31.3905 22.2445 30.0949 25.3557 27.7895 27.6495C25.484 29.9434 22.3575 31.232 19.0975 31.232V31.2352Z" fill="white"/>
<path d="M38.1692 21.1927C38.1692 20.8932 36.901 19.9466 36.901 19C36.901 18.0534 38.1369 17.2323 38.1692 16.817C38.1692 16.6206 38.1692 16.5143 38.1692 16.5143H38.0851L38.1692 16.4886L38.0722 16.202C38.0139 15.909 36.5225 15.3262 36.2799 14.415C36.0372 13.5038 37.0046 12.3898 36.9269 11.9776C36.8881 11.7844 36.8622 11.6814 36.8622 11.6814L36.7878 11.6975L36.8557 11.6557L36.6843 11.4142C36.5516 11.134 34.9696 10.9602 34.4908 10.1423C34.012 9.32452 34.672 7.99797 34.4908 7.61803L34.3614 7.34757L34.2837 7.38943L34.342 7.32503L34.1123 7.13506C33.9084 6.8968 32.3361 7.13506 31.6664 6.46856C30.9967 5.80207 31.2814 4.34994 31 4.0344C30.8803 3.88951 30.8059 3.8058 30.8059 3.8058L30.7509 3.86053L30.7929 3.79614L30.5115 3.65768C30.2591 3.48381 28.8 4.12777 27.9783 3.65768C27.1565 3.18759 27.0595 1.70971 26.7068 1.47466C26.5451 1.36197 26.4545 1.30401 26.4545 1.30401L26.4124 1.38129V1.29758L26.1148 1.2364C25.8301 1.13981 24.5813 2.13472 23.6657 1.88036C22.7502 1.62599 22.2714 0.235041 21.8702 0.0965899C21.6825 0.0386336 21.579 0 21.579 0V0.0837178V0L21.2781 0.019318C20.8543 0.0547357 20.0261 1.28792 19.0749 1.28792C18.1238 1.28792 17.1759 -7.8565e-07 16.8685 0.019318L16.5838 0V0.0837178V0.00322294C16.5838 0.00322294 16.4835 0.0418565 16.2959 0.0998128C15.8947 0.238264 15.4159 1.6421 14.5003 1.88358C13.5848 2.12507 12.3327 1.13659 12.048 1.23962L11.731 1.28792L11.7472 1.36841L11.731 1.28792C11.731 1.28792 11.6404 1.34587 11.4786 1.45857C11.1292 1.69361 11.0354 3.16828 10.2104 3.64158C9.38544 4.11489 7.92636 3.47094 7.67402 3.64158L7.39577 3.78003L7.43783 3.84443L7.3796 3.78969L7.18225 4.01831C6.90403 4.34028 7.19843 5.78919 6.53521 6.45247C5.87199 7.11574 4.27055 6.8807 4.08614 7.11574L3.85321 7.30893L3.91145 7.37332L3.8435 7.33146C3.8435 7.33146 3.79822 7.42806 3.71086 7.60193C3.52322 7.98186 4.17997 9.30521 3.71086 10.1263C3.24176 10.9473 1.65325 11.1179 1.51413 11.3981L1.34592 11.6395L1.41708 11.6782L1.3362 11.6621L1.28121 11.9615C1.20033 12.3737 2.1806 13.4877 1.92825 14.3989C1.6759 15.3101 0.194175 15.8929 0.132706 16.1859L0.0388716 16.4725L0.113295 16.4982H0.0291762C0.0291762 16.4982 0.0291786 16.6045 0.0518251 16.8009C0.0874126 17.2162 1.32327 18.0373 1.32327 18.9839C1.32327 19.9305 0.0291786 20.8771 0.0518251 21.1766L0.0291762 21.4792H0.0841695L0.00976562 21.4953C0.00976562 21.4953 0.0421108 21.6048 0.10358 21.7851C0.24593 22.1844 1.65001 22.6577 1.89913 23.5721C2.14824 24.4865 1.14532 25.7261 1.25208 26.0159L1.30709 26.3057L1.38797 26.2896L1.31679 26.3315L1.48503 26.5826C1.72443 26.9303 3.21263 27.0269 3.68174 27.8448C4.15085 28.6626 3.51674 30.1244 3.68174 30.3691L3.81439 30.646L3.88232 30.6041L3.82733 30.6621C3.82733 30.6621 3.90822 30.7361 4.05704 30.8617C4.38056 31.1354 5.83639 30.8617 6.50608 31.5057C7.17578 32.1496 6.93637 33.7595 7.15313 33.9398L7.35049 34.1684L7.40872 34.1137L7.36666 34.1845L7.64489 34.3165C8.02665 34.5001 9.35633 33.8465 10.1813 34.3165C11.0063 34.7866 11.1778 36.3676 11.4495 36.4996L11.7019 36.6702L11.7439 36.6026L11.731 36.7056L12.0286 36.7668C12.4427 36.8473 13.5621 35.8685 14.4809 36.1229C15.3997 36.3772 15.9756 37.8519 16.2732 37.9066L16.5644 38V37.9195V37.9936H16.9073C17.2147 38.0161 18.1594 36.7378 19.1138 36.7378C20.0682 36.7378 20.8931 37.9614 21.317 37.9936L21.6178 38.0161V37.9388V38.0097L21.909 37.9163C22.2131 37.8615 22.7857 36.3708 23.7046 36.1325C24.6234 35.8943 25.7395 36.8634 26.1536 36.7765L26.4513 36.7153V36.6412L26.4933 36.7089L26.7457 36.5382C27.0174 36.4062 27.1954 34.8285 28.0171 34.3552C28.8389 33.8819 30.1685 34.5355 30.5503 34.3552L30.8317 34.2232L30.7897 34.1523L30.8447 34.2071L31.0388 33.9785C31.275 33.7853 31.0388 32.2076 31.7053 31.5443C32.3717 30.881 33.8373 31.1612 34.1511 30.9004L34.3808 30.7007L34.3226 30.6428L34.4002 30.6846L34.5296 30.4077C34.7011 30.163 34.0573 28.7045 34.5296 27.8834C35.0019 27.0624 36.4869 26.969 36.7231 26.6212L36.8946 26.3701L36.8266 26.3282L36.901 26.3443L36.9657 26.0546C37.0596 25.7648 36.0599 24.5219 36.3187 23.6107C36.5775 22.6995 37.9719 22.223 38.111 21.8238C38.1692 21.6434 38.2081 21.5372 38.2081 21.5372L38.124 21.5179H38.2081L38.1692 21.1927ZM33.8308 10.5352C34.2837 11.3144 35.8011 11.4818 35.9272 11.7426L35.9952 11.8327C35.4969 12.1547 35.6975 12.0227 35.2123 12.335C33.8243 12.3833 32.5141 10.7895 33.1352 9.23115C33.5849 8.7997 33.3941 8.98966 33.8373 8.54533C33.7532 9.0927 33.4911 9.95238 33.8308 10.5352V10.5352ZM30.2138 5.38349C30.3562 5.15811 30.4985 4.93595 30.6506 4.71378C30.9029 5.03576 30.6312 6.39773 31.2718 7.02559C31.9123 7.65345 33.4135 7.44094 33.6141 7.66955C33.3099 8.01085 33.6529 7.70818 33.3196 8.01728C30.9029 9.19895 29.2756 6.636 30.1847 5.47687C30.2106 5.44467 30.2074 5.41247 30.2138 5.38349V5.38349ZM26.6551 2.38587C26.9107 2.81732 27.0627 3.94425 27.7518 4.33706C28.4409 4.72988 29.5668 4.33706 30.0165 4.31774C29.8482 4.57533 29.693 4.82325 29.528 5.08083C28.1562 5.95984 26.2927 4.90696 26.3316 3.69954C26.3332 3.644 26.3186 3.58919 26.2895 3.54177C26.4092 3.16506 26.5321 2.77546 26.6518 2.38587H26.6551ZM22.0675 1.03677C22.4331 1.37807 22.8731 2.4406 23.6528 2.64667C24.5231 2.87528 25.7007 1.94475 25.9821 2.02847C25.8107 2.59515 25.7557 2.77546 25.581 3.34215C24.7948 4.10202 22.7016 3.89917 22.1743 2.62092C22.0611 2.29894 22.0611 2.29893 21.9575 1.94476C21.9522 1.91244 21.9424 1.88102 21.9284 1.85138C21.9737 1.57448 22.019 1.30724 22.0643 1.03677H22.0675ZM17.0012 0.682595C17.2859 0.656836 18.1885 1.88036 19.1008 1.88036C20.0132 1.88036 20.7993 0.708353 21.1973 0.682595C21.2403 0.679026 21.2836 0.679026 21.3267 0.682595C21.2717 1.02389 21.2199 1.36841 21.1552 1.70971C21.1293 1.73225 21.0258 2.1798 20.9999 2.21522C19.8482 3.50314 18.1076 3.63837 17.1597 1.71293C17.1015 1.37163 17.0465 1.03355 16.9979 0.695476L17.0012 0.682595ZM14.7009 2.64667C15.4677 2.4406 15.9206 1.37807 16.2732 1.03677C16.3153 1.30724 16.3671 1.57448 16.4156 1.85138C16.4024 1.88087 16.3947 1.91252 16.3929 1.94476C16.2829 2.28606 16.2829 2.28606 16.1794 2.62092C15.6391 3.90883 13.5459 4.10202 12.7598 3.34215C12.5851 2.77546 12.5333 2.59515 12.3619 2.02847C12.6368 1.93187 13.8242 2.87528 14.6977 2.64667H14.7009ZM10.5889 4.33706C11.2813 3.94425 11.4431 2.81732 11.6954 2.38587C11.8054 2.77546 11.9316 3.16506 12.0513 3.55465C12.027 3.59924 12.0137 3.64887 12.0124 3.69954C12.0513 4.90696 10.191 5.9534 8.82575 5.08083C8.66076 4.82325 8.50222 4.57533 8.32752 4.31774C8.78368 4.33062 9.91279 4.72666 10.5857 4.33706H10.5889ZM7.06903 7.02559C7.71607 6.39773 7.44432 5.03576 7.69666 4.71378L8.13017 5.38349C8.13183 5.41163 8.13956 5.43909 8.15282 5.46399C9.06516 6.62311 7.44755 9.18606 5.02113 8.0044C4.6976 7.68242 5.02112 8.0044 4.72995 7.65667C4.937 7.44094 6.42845 7.66633 7.06579 7.02559H7.06903ZM2.41354 11.7426C2.53971 11.4818 4.05703 11.3144 4.51319 10.5352C4.83672 9.95238 4.58437 9.0927 4.51319 8.54533C4.95642 8.98966 4.76554 8.7997 5.21523 9.23115C5.8364 10.7895 4.53261 12.3833 3.14146 12.335C2.65618 12.013 2.85353 12.1451 2.35854 11.8327L2.41354 11.7426ZM1.00298 21.3022L1.02239 21.0993C0.999746 20.8063 2.23236 19.9048 2.23236 19C2.23236 18.3142 1.55619 17.7121 1.21326 17.2645C1.84445 17.5915 2.37618 18.0807 2.75323 18.6812C2.86948 19.2602 2.75011 19.8614 2.42134 20.3528C2.09256 20.8442 1.58128 21.1856 0.999744 21.3022H1.00298ZM2.34883 16.4725C2.32618 16.4725 2.32294 16.4725 2.32618 16.4725C1.87325 16.3533 1.70178 16.2954 1.23591 16.1666C1.60472 15.8446 2.61412 15.3584 2.8147 14.6307C2.98617 13.9868 2.51059 13.2205 2.28736 12.7182C2.76294 13.0402 3.02175 13.214 3.50057 13.5231C4.04085 14.4118 3.70439 16.4531 2.34883 16.4757V16.4725ZM19.1008 34.3649C16.0465 34.3661 13.0603 33.4659 10.5201 31.778C7.97987 30.0901 5.99964 27.6904 4.8299 24.8824C3.66016 22.0743 3.35346 18.9841 3.94855 16.0026C4.54364 13.021 6.01381 10.2821 8.17312 8.13219C10.3324 5.98228 13.0839 4.51798 16.0794 3.92448C19.075 3.33097 22.1802 3.63493 25.0022 4.79791C27.8241 5.9609 30.2362 7.93066 31.9332 10.4581C33.6303 12.9855 34.5361 15.957 34.5361 18.9968C34.5327 23.0713 32.9052 26.9781 30.0109 29.8599C27.1165 32.7416 23.1917 34.363 19.0976 34.3681L19.1008 34.3649ZM34.8402 13.5231C35.319 13.2012 35.5778 13.0305 36.0502 12.7182C35.8302 13.2205 35.3546 13.9803 35.5325 14.6307C35.7266 15.3584 36.736 15.8575 37.1016 16.1666C36.6422 16.2986 36.4707 16.3533 36.0146 16.4725C36.0146 16.4725 36.0146 16.4725 35.9952 16.4725C34.6396 16.4531 34.2999 14.4118 34.8402 13.5231ZM35.6393 18.546C36.0783 17.8885 36.6502 17.3293 37.3184 16.9039C37.299 17.3064 36.1084 18.0888 36.1084 18.9936C36.1084 19.8983 37.3475 20.7999 37.3184 21.0929L37.3443 21.2957C36.8137 21.2506 35.3125 20.4714 35.6393 18.5363V18.546Z" fill="white"/>
<path d="M38.1692 21.1927C38.1692 20.8932 36.901 19.9466 36.901 19C36.901 18.0534 38.1369 17.2323 38.1692 16.817C38.1692 16.6206 38.1692 16.5143 38.1692 16.5143H38.0851L38.1692 16.4886L38.0722 16.202C38.0139 15.909 36.5225 15.3262 36.2799 14.415C36.0372 13.5038 37.0046 12.3898 36.9269 11.9776C36.8881 11.7844 36.8622 11.6814 36.8622 11.6814L36.7878 11.6975L36.8557 11.6557L36.6843 11.4142C36.5516 11.134 34.9696 10.9602 34.4908 10.1423C34.012 9.32452 34.672 7.99797 34.4908 7.61803L34.3614 7.34757L34.2837 7.38943L34.342 7.32503L34.1123 7.13506C33.9084 6.8968 32.3361 7.13506 31.6664 6.46856C30.9967 5.80207 31.2814 4.34994 31 4.0344C30.8803 3.88951 30.8059 3.8058 30.8059 3.8058L30.7509 3.86053L30.7929 3.79614L30.5115 3.65768C30.2591 3.48381 28.8 4.12777 27.9783 3.65768C27.1565 3.18759 27.0595 1.70971 26.7068 1.47466C26.5451 1.36197 26.4545 1.30401 26.4545 1.30401L26.4124 1.38129V1.29758L26.1148 1.2364C25.8301 1.13981 24.5813 2.13472 23.6657 1.88036C22.7502 1.62599 22.2714 0.235041 21.8702 0.0965899C21.6825 0.0386336 21.579 0 21.579 0V0.0837178V0L21.2781 0.019318C20.8543 0.0547357 20.0261 1.28792 19.0749 1.28792C18.1238 1.28792 17.1759 -7.8565e-07 16.8685 0.019318L16.5838 0V0.0837178V0.00322294C16.5838 0.00322294 16.4835 0.0418565 16.2959 0.0998128C15.8947 0.238264 15.4159 1.6421 14.5003 1.88358C13.5848 2.12507 12.3327 1.13659 12.048 1.23962L11.731 1.28792L11.7472 1.36841L11.731 1.28792C11.731 1.28792 11.6404 1.34587 11.4786 1.45857C11.1292 1.69361 11.0354 3.16828 10.2104 3.64158C9.38544 4.11489 7.92636 3.47094 7.67402 3.64158L7.39577 3.78003L7.43783 3.84443L7.3796 3.78969L7.18225 4.01831C6.90403 4.34028 7.19843 5.78919 6.53521 6.45247C5.87199 7.11574 4.27055 6.8807 4.08614 7.11574L3.85321 7.30893L3.91145 7.37332L3.8435 7.33146C3.8435 7.33146 3.79822 7.42806 3.71086 7.60193C3.52322 7.98186 4.17997 9.30521 3.71086 10.1263C3.24176 10.9473 1.65325 11.1179 1.51413 11.3981L1.34592 11.6395L1.41708 11.6782L1.3362 11.6621L1.28121 11.9615C1.20033 12.3737 2.1806 13.4877 1.92825 14.3989C1.6759 15.3101 0.194175 15.8929 0.132706 16.1859L0.0388716 16.4725L0.113295 16.4982H0.0291762C0.0291762 16.4982 0.0291786 16.6045 0.0518251 16.8009C0.0874126 17.2162 1.32327 18.0373 1.32327 18.9839C1.32327 19.9305 0.0291786 20.8771 0.0518251 21.1766L0.0291762 21.4792H0.0841695L0.00976562 21.4953C0.00976562 21.4953 0.0421108 21.6048 0.10358 21.7851C0.24593 22.1844 1.65001 22.6577 1.89913 23.5721C2.14824 24.4865 1.14532 25.7261 1.25208 26.0159L1.30709 26.3057L1.38797 26.2896L1.31679 26.3315L1.48503 26.5826C1.72443 26.9303 3.21263 27.0269 3.68174 27.8448C4.15085 28.6626 3.51674 30.1244 3.68174 30.3691L3.81439 30.646L3.88232 30.6041L3.82733 30.6621C3.82733 30.6621 3.90822 30.7361 4.05704 30.8617C4.38056 31.1354 5.83639 30.8617 6.50608 31.5057C7.17578 32.1496 6.93637 33.7595 7.15313 33.9398L7.35049 34.1684L7.40872 34.1137L7.36666 34.1845L7.64489 34.3165C8.02665 34.5001 9.35633 33.8465 10.1813 34.3165C11.0063 34.7866 11.1778 36.3676 11.4495 36.4996L11.7019 36.6702L11.7439 36.6026L11.731 36.7056L12.0286 36.7668C12.4427 36.8473 13.5621 35.8685 14.4809 36.1229C15.3997 36.3772 15.9756 37.8519 16.2732 37.9066L16.5644 38V37.9195V37.9936H16.9073C17.2147 38.0161 18.1594 36.7378 19.1138 36.7378C20.0682 36.7378 20.8931 37.9614 21.317 37.9936L21.6178 38.0161V37.9388V38.0097L21.909 37.9163C22.2131 37.8615 22.7857 36.3708 23.7046 36.1325C24.6234 35.8943 25.7395 36.8634 26.1536 36.7765L26.4513 36.7153V36.6412L26.4933 36.7089L26.7457 36.5382C27.0174 36.4062 27.1954 34.8285 28.0171 34.3552C28.8389 33.8819 30.1685 34.5355 30.5503 34.3552L30.8317 34.2232L30.7897 34.1523L30.8447 34.2071L31.0388 33.9785C31.275 33.7853 31.0388 32.2076 31.7053 31.5443C32.3717 30.881 33.8373 31.1612 34.1511 30.9004L34.3808 30.7007L34.3226 30.6428L34.4002 30.6846L34.5296 30.4077C34.7011 30.163 34.0573 28.7045 34.5296 27.8834C35.0019 27.0624 36.4869 26.969 36.7231 26.6212L36.8946 26.3701L36.8266 26.3282L36.901 26.3443L36.9657 26.0546C37.0596 25.7648 36.0599 24.5219 36.3187 23.6107C36.5775 22.6995 37.9719 22.223 38.111 21.8238C38.1692 21.6434 38.2081 21.5372 38.2081 21.5372L38.124 21.5179H38.2081L38.1692 21.1927ZM33.8308 10.5352C34.2837 11.3144 35.8011 11.4818 35.9272 11.7426L35.9952 11.8327C35.4969 12.1547 35.6975 12.0227 35.2123 12.335C33.8243 12.3833 32.5141 10.7895 33.1352 9.23115C33.5849 8.7997 33.3941 8.98966 33.8373 8.54533C33.7532 9.0927 33.4911 9.95238 33.8308 10.5352V10.5352ZM30.2138 5.38349C30.3562 5.15811 30.4985 4.93595 30.6506 4.71378C30.9029 5.03576 30.6312 6.39773 31.2718 7.02559C31.9123 7.65345 33.4135 7.44094 33.6141 7.66955C33.3099 8.01085 33.6529 7.70818 33.3196 8.01728C30.9029 9.19895 29.2756 6.636 30.1847 5.47687C30.2106 5.44467 30.2074 5.41247 30.2138 5.38349V5.38349ZM26.6551 2.38587C26.9107 2.81732 27.0627 3.94425 27.7518 4.33706C28.4409 4.72988 29.5668 4.33706 30.0165 4.31774C29.8482 4.57533 29.693 4.82325 29.528 5.08083C28.1562 5.95984 26.2927 4.90696 26.3316 3.69954C26.3332 3.644 26.3186 3.58919 26.2895 3.54177C26.4092 3.16506 26.5321 2.77546 26.6518 2.38587H26.6551ZM22.0675 1.03677C22.4331 1.37807 22.8731 2.4406 23.6528 2.64667C24.5231 2.87528 25.7007 1.94475 25.9821 2.02847C25.8107 2.59515 25.7557 2.77546 25.581 3.34215C24.7948 4.10202 22.7016 3.89917 22.1743 2.62092C22.0611 2.29894 22.0611 2.29893 21.9575 1.94476C21.9522 1.91244 21.9424 1.88102 21.9284 1.85138C21.9737 1.57448 22.019 1.30724 22.0643 1.03677H22.0675ZM17.0012 0.682595C17.2859 0.656836 18.1885 1.88036 19.1008 1.88036C20.0132 1.88036 20.7993 0.708353 21.1973 0.682595C21.2403 0.679026 21.2836 0.679026 21.3267 0.682595C21.2717 1.02389 21.2199 1.36841 21.1552 1.70971C21.1293 1.73225 21.0258 2.1798 20.9999 2.21522C19.8482 3.50314 18.1076 3.63837 17.1597 1.71293C17.1015 1.37163 17.0465 1.03355 16.9979 0.695476L17.0012 0.682595ZM14.7009 2.64667C15.4677 2.4406 15.9206 1.37807 16.2732 1.03677C16.3153 1.30724 16.3671 1.57448 16.4156 1.85138C16.4024 1.88087 16.3947 1.91252 16.3929 1.94476C16.2829 2.28606 16.2829 2.28606 16.1794 2.62092C15.6391 3.90883 13.5459 4.10202 12.7598 3.34215C12.5851 2.77546 12.5333 2.59515 12.3619 2.02847C12.6368 1.93187 13.8242 2.87528 14.6977 2.64667H14.7009ZM10.5889 4.33706C11.2813 3.94425 11.4431 2.81732 11.6954 2.38587C11.8054 2.77546 11.9316 3.16506 12.0513 3.55465C12.027 3.59924 12.0137 3.64887 12.0124 3.69954C12.0513 4.90696 10.191 5.9534 8.82575 5.08083C8.66076 4.82325 8.50222 4.57533 8.32752 4.31774C8.78368 4.33062 9.91279 4.72666 10.5857 4.33706H10.5889ZM7.06903 7.02559C7.71607 6.39773 7.44432 5.03576 7.69666 4.71378L8.13017 5.38349C8.13183 5.41163 8.13956 5.43909 8.15282 5.46399C9.06516 6.62311 7.44755 9.18606 5.02113 8.0044C4.6976 7.68242 5.02112 8.0044 4.72995 7.65667C4.937 7.44094 6.42845 7.66633 7.06579 7.02559H7.06903ZM2.41354 11.7426C2.53971 11.4818 4.05703 11.3144 4.51319 10.5352C4.83672 9.95238 4.58437 9.0927 4.51319 8.54533C4.95642 8.98966 4.76554 8.7997 5.21523 9.23115C5.8364 10.7895 4.53261 12.3833 3.14146 12.335C2.65618 12.013 2.85353 12.1451 2.35854 11.8327L2.41354 11.7426ZM1.00298 21.3022L1.02239 21.0993C0.999746 20.8063 2.23236 19.9048 2.23236 19C2.23236 18.3142 1.55619 17.7121 1.21326 17.2645C1.84445 17.5915 2.37618 18.0807 2.75323 18.6812C2.86948 19.2602 2.75011 19.8614 2.42134 20.3528C2.09256 20.8442 1.58128 21.1856 0.999744 21.3022H1.00298ZM2.34883 16.4725C2.32618 16.4725 2.32294 16.4725 2.32618 16.4725C1.87325 16.3533 1.70178 16.2954 1.23591 16.1666C1.60472 15.8446 2.61412 15.3584 2.8147 14.6307C2.98617 13.9868 2.51059 13.2205 2.28736 12.7182C2.76294 13.0402 3.02175 13.214 3.50057 13.5231C4.04085 14.4118 3.70439 16.4531 2.34883 16.4757V16.4725ZM19.1008 34.3649C16.0465 34.3661 13.0603 33.4659 10.5201 31.778C7.97987 30.0901 5.99964 27.6904 4.8299 24.8824C3.66016 22.0743 3.35346 18.9841 3.94855 16.0026C4.54364 13.021 6.01381 10.2821 8.17312 8.13219C10.3324 5.98228 13.0839 4.51798 16.0794 3.92448C19.075 3.33097 22.1802 3.63493 25.0022 4.79791C27.8241 5.9609 30.2362 7.93066 31.9332 10.4581C33.6303 12.9855 34.5361 15.957 34.5361 18.9968C34.5327 23.0713 32.9052 26.9781 30.0109 29.8599C27.1165 32.7416 23.1917 34.363 19.0976 34.3681L19.1008 34.3649ZM34.8402 13.5231C35.319 13.2012 35.5778 13.0305 36.0502 12.7182C35.8302 13.2205 35.3546 13.9803 35.5325 14.6307C35.7266 15.3584 36.736 15.8575 37.1016 16.1666C36.6422 16.2986 36.4707 16.3533 36.0146 16.4725C36.0146 16.4725 36.0146 16.4725 35.9952 16.4725C34.6396 16.4531 34.2999 14.4118 34.8402 13.5231ZM35.6393 18.546C36.0783 17.8885 36.6502 17.3293 37.3184 16.9039C37.299 17.3064 36.1084 18.0888 36.1084 18.9936C36.1084 19.8983 37.3475 20.7999 37.3184 21.0929L37.3443 21.2957C36.8137 21.2506 35.3125 20.4714 35.6393 18.5363V18.546Z" fill="white"/>
<ellipse cx="19.0927" cy="19.0001" rx="13.2819" ry="13.2174" fill="white"/>
<ellipse opacity="0.2" cx="19.0927" cy="18.9999" rx="12.7285" ry="12.6667" fill="#08070C"/>
</g>
<defs>
<clipPath id="clip0_3804_3157">
<rect width="38.1854" height="38" fill="white"/>
</clipPath>
</defs>
</svg>
